<?xml version="1.0" encoding="utf-8" standalone="no"?>
<!DOCTYPE svg PUBLIC "-//W3C//DTD SVG 1.1//EN"
  "http://www.w3.org/Graphics/SVG/1.1/DTD/svg11.dtd">
<svg xmlns:xlink="http://www.w3.org/1999/xlink" width="576pt" height="288pt" viewBox="0 0 576 288" xmlns="http://www.w3.org/2000/svg" version="1.1">
 <metadata>
  <rdf:RDF xmlns:dc="http://purl.org/dc/elements/1.1/" xmlns:cc="http://creativecommons.org/ns#" xmlns:rdf="http://www.w3.org/1999/02/22-rdf-syntax-ns#">
   <cc:Work>
    <dc:type rdf:resource="http://purl.org/dc/dcmitype/StillImage"/>
    <dc:date>2023-11-20T14:17:44.609380</dc:date>
    <dc:format>image/svg+xml</dc:format>
    <dc:creator>
     <cc:Agent>
      <dc:title>Matplotlib v3.8.0, https://matplotlib.org/</dc:title>
     </cc:Agent>
    </dc:creator>
   </cc:Work>
  </rdf:RDF>
 </metadata>
 <defs>
  <style type="text/css">*{stroke-linejoin: round; stroke-linecap: butt}</style>
 </defs>
 <g id="figure_1">
  <g id="patch_1">
   <path d="M 0 288 
L 576 288 
L 576 0 
L 0 0 
z
" style="fill: #ffffff"/>
  </g>
  <g id="axes_1">
   <g id="patch_2">
    <path d="M 72 256.32 
L 518.4 256.32 
L 518.4 34.56 
L 72 34.56 
z
" style="fill: #ffffff"/>
   </g>
   <g id="matplotlib.axis_1">
    <g id="xtick_1">
     <g id="line2d_1">
      <path d="M 72 256.32 
L 72 34.56 
" clip-path="url(#pa80a65dcac)" style="fill: none; stroke: #b0b0b0; stroke-width: 0.8; stroke-linecap: square"/>
     </g>
     <g id="line2d_2">
      <defs>
       <path id="md2701f49ff" d="M 0 0 
L 0 3.5 
" style="stroke: #000000; stroke-width: 0.8"/>
      </defs>
      <g>
       <use xlink:href="#md2701f49ff" x="72" y="256.32" style="stroke: #000000; stroke-width: 0.8"/>
      </g>
     </g>
     <g id="text_1">
      <!-- −60000 -->
      <g transform="translate(51.903906 270.918437) scale(0.1 -0.1)">
       <defs>
        <path id="DejaVuSans-2212" d="M 678 2272 
L 4684 2272 
L 4684 1741 
L 678 1741 
L 678 2272 
z
" transform="scale(0.015625)"/>
        <path id="DejaVuSans-36" d="M 2113 2584 
Q 1688 2584 1439 2293 
Q 1191 2003 1191 1497 
Q 1191 994 1439 701 
Q 1688 409 2113 409 
Q 2538 409 2786 701 
Q 3034 994 3034 1497 
Q 3034 2003 2786 2293 
Q 2538 2584 2113 2584 
z
M 3366 4563 
L 3366 3988 
Q 3128 4100 2886 4159 
Q 2644 4219 2406 4219 
Q 1781 4219 1451 3797 
Q 1122 3375 1075 2522 
Q 1259 2794 1537 2939 
Q 1816 3084 2150 3084 
Q 2853 3084 3261 2657 
Q 3669 2231 3669 1497 
Q 3669 778 3244 343 
Q 2819 -91 2113 -91 
Q 1303 -91 875 529 
Q 447 1150 447 2328 
Q 447 3434 972 4092 
Q 1497 4750 2381 4750 
Q 2619 4750 2861 4703 
Q 3103 4656 3366 4563 
z
" transform="scale(0.015625)"/>
        <path id="DejaVuSans-30" d="M 2034 4250 
Q 1547 4250 1301 3770 
Q 1056 3291 1056 2328 
Q 1056 1369 1301 889 
Q 1547 409 2034 409 
Q 2525 409 2770 889 
Q 3016 1369 3016 2328 
Q 3016 3291 2770 3770 
Q 2525 4250 2034 4250 
z
M 2034 4750 
Q 2819 4750 3233 4129 
Q 3647 3509 3647 2328 
Q 3647 1150 3233 529 
Q 2819 -91 2034 -91 
Q 1250 -91 836 529 
Q 422 1150 422 2328 
Q 422 3509 836 4129 
Q 1250 4750 2034 4750 
z
" transform="scale(0.015625)"/>
       </defs>
       <use xlink:href="#DejaVuSans-2212"/>
       <use xlink:href="#DejaVuSans-36" x="83.789062"/>
       <use xlink:href="#DejaVuSans-30" x="147.412109"/>
       <use xlink:href="#DejaVuSans-30" x="211.035156"/>
       <use xlink:href="#DejaVuSans-30" x="274.658203"/>
       <use xlink:href="#DejaVuSans-30" x="338.28125"/>
      </g>
     </g>
    </g>
    <g id="xtick_2">
     <g id="line2d_3">
      <path d="M 146.4 256.32 
L 146.4 34.56 
" clip-path="url(#pa80a65dcac)" style="fill: none; stroke: #b0b0b0; stroke-width: 0.8; stroke-linecap: square"/>
     </g>
     <g id="line2d_4">
      <g>
       <use xlink:href="#md2701f49ff" x="146.4" y="256.32" style="stroke: #000000; stroke-width: 0.8"/>
      </g>
     </g>
     <g id="text_2">
      <!-- −40000 -->
      <g transform="translate(126.303906 270.918437) scale(0.1 -0.1)">
       <defs>
        <path id="DejaVuSans-34" d="M 2419 4116 
L 825 1625 
L 2419 1625 
L 2419 4116 
z
M 2253 4666 
L 3047 4666 
L 3047 1625 
L 3713 1625 
L 3713 1100 
L 3047 1100 
L 3047 0 
L 2419 0 
L 2419 1100 
L 313 1100 
L 313 1709 
L 2253 4666 
z
" transform="scale(0.015625)"/>
       </defs>
       <use xlink:href="#DejaVuSans-2212"/>
       <use xlink:href="#DejaVuSans-34" x="83.789062"/>
       <use xlink:href="#DejaVuSans-30" x="147.412109"/>
       <use xlink:href="#DejaVuSans-30" x="211.035156"/>
       <use xlink:href="#DejaVuSans-30" x="274.658203"/>
       <use xlink:href="#DejaVuSans-30" x="338.28125"/>
      </g>
     </g>
    </g>
    <g id="xtick_3">
     <g id="line2d_5">
      <path d="M 220.8 256.32 
L 220.8 34.56 
" clip-path="url(#pa80a65dcac)" style="fill: none; stroke: #b0b0b0; stroke-width: 0.8; stroke-linecap: square"/>
     </g>
     <g id="line2d_6">
      <g>
       <use xlink:href="#md2701f49ff" x="220.8" y="256.32" style="stroke: #000000; stroke-width: 0.8"/>
      </g>
     </g>
     <g id="text_3">
      <!-- −20000 -->
      <g transform="translate(200.703906 270.918437) scale(0.1 -0.1)">
       <defs>
        <path id="DejaVuSans-32" d="M 1228 531 
L 3431 531 
L 3431 0 
L 469 0 
L 469 531 
Q 828 903 1448 1529 
Q 2069 2156 2228 2338 
Q 2531 2678 2651 2914 
Q 2772 3150 2772 3378 
Q 2772 3750 2511 3984 
Q 2250 4219 1831 4219 
Q 1534 4219 1204 4116 
Q 875 4013 500 3803 
L 500 4441 
Q 881 4594 1212 4672 
Q 1544 4750 1819 4750 
Q 2544 4750 2975 4387 
Q 3406 4025 3406 3419 
Q 3406 3131 3298 2873 
Q 3191 2616 2906 2266 
Q 2828 2175 2409 1742 
Q 1991 1309 1228 531 
z
" transform="scale(0.015625)"/>
       </defs>
       <use xlink:href="#DejaVuSans-2212"/>
       <use xlink:href="#DejaVuSans-32" x="83.789062"/>
       <use xlink:href="#DejaVuSans-30" x="147.412109"/>
       <use xlink:href="#DejaVuSans-30" x="211.035156"/>
       <use xlink:href="#DejaVuSans-30" x="274.658203"/>
       <use xlink:href="#DejaVuSans-30" x="338.28125"/>
      </g>
     </g>
    </g>
    <g id="xtick_4">
     <g id="line2d_7">
      <path d="M 295.2 256.32 
L 295.2 34.56 
" clip-path="url(#pa80a65dcac)" style="fill: none; stroke: #b0b0b0; stroke-width: 0.8; stroke-linecap: square"/>
     </g>
     <g id="line2d_8">
      <g>
       <use xlink:href="#md2701f49ff" x="295.2" y="256.32" style="stroke: #000000; stroke-width: 0.8"/>
      </g>
     </g>
     <g id="text_4">
      <!-- 0 -->
      <g transform="translate(292.01875 270.918437) scale(0.1 -0.1)">
       <use xlink:href="#DejaVuSans-30"/>
      </g>
     </g>
    </g>
    <g id="xtick_5">
     <g id="line2d_9">
      <path d="M 369.6 256.32 
L 369.6 34.56 
" clip-path="url(#pa80a65dcac)" style="fill: none; stroke: #b0b0b0; stroke-width: 0.8; stroke-linecap: square"/>
     </g>
     <g id="line2d_10">
      <g>
       <use xlink:href="#md2701f49ff" x="369.6" y="256.32" style="stroke: #000000; stroke-width: 0.8"/>
      </g>
     </g>
     <g id="text_5">
      <!-- 20000 -->
      <g transform="translate(353.69375 270.918437) scale(0.1 -0.1)">
       <use xlink:href="#DejaVuSans-32"/>
       <use xlink:href="#DejaVuSans-30" x="63.623047"/>
       <use xlink:href="#DejaVuSans-30" x="127.246094"/>
       <use xlink:href="#DejaVuSans-30" x="190.869141"/>
       <use xlink:href="#DejaVuSans-30" x="254.492188"/>
      </g>
     </g>
    </g>
    <g id="xtick_6">
     <g id="line2d_11">
      <path d="M 444 256.32 
L 444 34.56 
" clip-path="url(#pa80a65dcac)" style="fill: none; stroke: #b0b0b0; stroke-width: 0.8; stroke-linecap: square"/>
     </g>
     <g id="line2d_12">
      <g>
       <use xlink:href="#md2701f49ff" x="444" y="256.32" style="stroke: #000000; stroke-width: 0.8"/>
      </g>
     </g>
     <g id="text_6">
      <!-- 40000 -->
      <g transform="translate(428.09375 270.918437) scale(0.1 -0.1)">
       <use xlink:href="#DejaVuSans-34"/>
       <use xlink:href="#DejaVuSans-30" x="63.623047"/>
       <use xlink:href="#DejaVuSans-30" x="127.246094"/>
       <use xlink:href="#DejaVuSans-30" x="190.869141"/>
       <use xlink:href="#DejaVuSans-30" x="254.492188"/>
      </g>
     </g>
    </g>
    <g id="xtick_7">
     <g id="line2d_13">
      <path d="M 518.4 256.32 
L 518.4 34.56 
" clip-path="url(#pa80a65dcac)" style="fill: none; stroke: #b0b0b0; stroke-width: 0.8; stroke-linecap: square"/>
     </g>
     <g id="line2d_14">
      <g>
       <use xlink:href="#md2701f49ff" x="518.4" y="256.32" style="stroke: #000000; stroke-width: 0.8"/>
      </g>
     </g>
     <g id="text_7">
      <!-- 60000 -->
      <g transform="translate(502.49375 270.918437) scale(0.1 -0.1)">
       <use xlink:href="#DejaVuSans-36"/>
       <use xlink:href="#DejaVuSans-30" x="63.623047"/>
       <use xlink:href="#DejaVuSans-30" x="127.246094"/>
       <use xlink:href="#DejaVuSans-30" x="190.869141"/>
       <use xlink:href="#DejaVuSans-30" x="254.492188"/>
      </g>
     </g>
    </g>
    <g id="text_8">
     <!-- $f$, Гц -->
     <g transform="translate(283.8 284.596563) scale(0.1 -0.1)">
      <defs>
       <path id="DejaVuSans-Oblique-66" d="M 3059 4863 
L 2969 4384 
L 2419 4384 
Q 2106 4384 1964 4261 
Q 1822 4138 1753 3809 
L 1691 3500 
L 2638 3500 
L 2553 3053 
L 1606 3053 
L 1013 0 
L 434 0 
L 1031 3053 
L 481 3053 
L 563 3500 
L 1113 3500 
L 1159 3744 
Q 1278 4363 1576 4613 
Q 1875 4863 2516 4863 
L 3059 4863 
z
" transform="scale(0.015625)"/>
       <path id="DejaVuSans-2c" d="M 750 794 
L 1409 794 
L 1409 256 
L 897 -744 
L 494 -744 
L 750 256 
L 750 794 
z
" transform="scale(0.015625)"/>
       <path id="DejaVuSans-20" transform="scale(0.015625)"/>
       <path id="DejaVuSans-413" d="M 628 0 
L 628 4666 
L 3531 4666 
L 3531 4134 
L 1259 4134 
L 1259 0 
L 628 0 
z
" transform="scale(0.015625)"/>
       <path id="DejaVuSans-446" d="M 3603 0 
L 581 0 
L 581 3500 
L 1159 3500 
L 1159 459 
L 3025 459 
L 3025 3500 
L 3603 3500 
L 3603 459 
L 4063 459 
L 4063 -884 
L 3603 -884 
L 3603 0 
z
" transform="scale(0.015625)"/>
      </defs>
      <use xlink:href="#DejaVuSans-Oblique-66" transform="translate(0 0.015625)"/>
      <use xlink:href="#DejaVuSans-2c" transform="translate(35.205078 0.015625)"/>
      <use xlink:href="#DejaVuSans-20" transform="translate(66.992188 0.015625)"/>
      <use xlink:href="#DejaVuSans-413" transform="translate(98.779297 0.015625)"/>
      <use xlink:href="#DejaVuSans-446" transform="translate(159.765625 0.015625)"/>
     </g>
    </g>
   </g>
   <g id="matplotlib.axis_2">
    <g id="ytick_1">
     <g id="line2d_15">
      <path d="M 72 248.791927 
L 518.4 248.791927 
" clip-path="url(#pa80a65dcac)" style="fill: none; stroke: #b0b0b0; stroke-width: 0.8; stroke-linecap: square"/>
     </g>
     <g id="line2d_16">
      <defs>
       <path id="m81d40be489" d="M 0 0 
L -3.5 0 
" style="stroke: #000000; stroke-width: 0.8"/>
      </defs>
      <g>
       <use xlink:href="#m81d40be489" x="72" y="248.791927" style="stroke: #000000; stroke-width: 0.8"/>
      </g>
     </g>
     <g id="text_9">
      <!-- 0.0 -->
      <g transform="translate(49.096875 252.591146) scale(0.1 -0.1)">
       <defs>
        <path id="DejaVuSans-2e" d="M 684 794 
L 1344 794 
L 1344 0 
L 684 0 
L 684 794 
z
" transform="scale(0.015625)"/>
       </defs>
       <use xlink:href="#DejaVuSans-30"/>
       <use xlink:href="#DejaVuSans-2e" x="63.623047"/>
       <use xlink:href="#DejaVuSans-30" x="95.410156"/>
      </g>
     </g>
    </g>
    <g id="ytick_2">
     <g id="line2d_17">
      <path d="M 72 210.306383 
L 518.4 210.306383 
" clip-path="url(#pa80a65dcac)" style="fill: none; stroke: #b0b0b0; stroke-width: 0.8; stroke-linecap: square"/>
     </g>
     <g id="line2d_18">
      <g>
       <use xlink:href="#m81d40be489" x="72" y="210.306383" style="stroke: #000000; stroke-width: 0.8"/>
      </g>
     </g>
     <g id="text_10">
      <!-- 0.2 -->
      <g transform="translate(49.096875 214.105602) scale(0.1 -0.1)">
       <use xlink:href="#DejaVuSans-30"/>
       <use xlink:href="#DejaVuSans-2e" x="63.623047"/>
       <use xlink:href="#DejaVuSans-32" x="95.410156"/>
      </g>
     </g>
    </g>
    <g id="ytick_3">
     <g id="line2d_19">
      <path d="M 72 171.82084 
L 518.4 171.82084 
" clip-path="url(#pa80a65dcac)" style="fill: none; stroke: #b0b0b0; stroke-width: 0.8; stroke-linecap: square"/>
     </g>
     <g id="line2d_20">
      <g>
       <use xlink:href="#m81d40be489" x="72" y="171.82084" style="stroke: #000000; stroke-width: 0.8"/>
      </g>
     </g>
     <g id="text_11">
      <!-- 0.4 -->
      <g transform="translate(49.096875 175.620058) scale(0.1 -0.1)">
       <use xlink:href="#DejaVuSans-30"/>
       <use xlink:href="#DejaVuSans-2e" x="63.623047"/>
       <use xlink:href="#DejaVuSans-34" x="95.410156"/>
      </g>
     </g>
    </g>
    <g id="ytick_4">
     <g id="line2d_21">
      <path d="M 72 133.335296 
L 518.4 133.335296 
" clip-path="url(#pa80a65dcac)" style="fill: none; stroke: #b0b0b0; stroke-width: 0.8; stroke-linecap: square"/>
     </g>
     <g id="line2d_22">
      <g>
       <use xlink:href="#m81d40be489" x="72" y="133.335296" style="stroke: #000000; stroke-width: 0.8"/>
      </g>
     </g>
     <g id="text_12">
      <!-- 0.6 -->
      <g transform="translate(49.096875 137.134514) scale(0.1 -0.1)">
       <use xlink:href="#DejaVuSans-30"/>
       <use xlink:href="#DejaVuSans-2e" x="63.623047"/>
       <use xlink:href="#DejaVuSans-36" x="95.410156"/>
      </g>
     </g>
    </g>
    <g id="ytick_5">
     <g id="line2d_23">
      <path d="M 72 94.849752 
L 518.4 94.849752 
" clip-path="url(#pa80a65dcac)" style="fill: none; stroke: #b0b0b0; stroke-width: 0.8; stroke-linecap: square"/>
     </g>
     <g id="line2d_24">
      <g>
       <use xlink:href="#m81d40be489" x="72" y="94.849752" style="stroke: #000000; stroke-width: 0.8"/>
      </g>
     </g>
     <g id="text_13">
      <!-- 0.8 -->
      <g transform="translate(49.096875 98.64897) scale(0.1 -0.1)">
       <defs>
        <path id="DejaVuSans-38" d="M 2034 2216 
Q 1584 2216 1326 1975 
Q 1069 1734 1069 1313 
Q 1069 891 1326 650 
Q 1584 409 2034 409 
Q 2484 409 2743 651 
Q 3003 894 3003 1313 
Q 3003 1734 2745 1975 
Q 2488 2216 2034 2216 
z
M 1403 2484 
Q 997 2584 770 2862 
Q 544 3141 544 3541 
Q 544 4100 942 4425 
Q 1341 4750 2034 4750 
Q 2731 4750 3128 4425 
Q 3525 4100 3525 3541 
Q 3525 3141 3298 2862 
Q 3072 2584 2669 2484 
Q 3125 2378 3379 2068 
Q 3634 1759 3634 1313 
Q 3634 634 3220 271 
Q 2806 -91 2034 -91 
Q 1263 -91 848 271 
Q 434 634 434 1313 
Q 434 1759 690 2068 
Q 947 2378 1403 2484 
z
M 1172 3481 
Q 1172 3119 1398 2916 
Q 1625 2713 2034 2713 
Q 2441 2713 2670 2916 
Q 2900 3119 2900 3481 
Q 2900 3844 2670 4047 
Q 2441 4250 2034 4250 
Q 1625 4250 1398 4047 
Q 1172 3844 1172 3481 
z
" transform="scale(0.015625)"/>
       </defs>
       <use xlink:href="#DejaVuSans-30"/>
       <use xlink:href="#DejaVuSans-2e" x="63.623047"/>
       <use xlink:href="#DejaVuSans-38" x="95.410156"/>
      </g>
     </g>
    </g>
    <g id="ytick_6">
     <g id="line2d_25">
      <path d="M 72 56.364208 
L 518.4 56.364208 
" clip-path="url(#pa80a65dcac)" style="fill: none; stroke: #b0b0b0; stroke-width: 0.8; stroke-linecap: square"/>
     </g>
     <g id="line2d_26">
      <g>
       <use xlink:href="#m81d40be489" x="72" y="56.364208" style="stroke: #000000; stroke-width: 0.8"/>
      </g>
     </g>
     <g id="text_14">
      <!-- 1.0 -->
      <g transform="translate(49.096875 60.163426) scale(0.1 -0.1)">
       <defs>
        <path id="DejaVuSans-31" d="M 794 531 
L 1825 531 
L 1825 4091 
L 703 3866 
L 703 4441 
L 1819 4666 
L 2450 4666 
L 2450 531 
L 3481 531 
L 3481 0 
L 794 0 
L 794 531 
z
" transform="scale(0.015625)"/>
       </defs>
       <use xlink:href="#DejaVuSans-31"/>
       <use xlink:href="#DejaVuSans-2e" x="63.623047"/>
       <use xlink:href="#DejaVuSans-30" x="95.410156"/>
      </g>
     </g>
    </g>
    <g id="text_15">
     <!-- $|H(f)|$ -->
     <g transform="translate(42.696875 158.24) rotate(-90) scale(0.1 -0.1)">
      <defs>
       <path id="DejaVuSans-7c" d="M 1344 4891 
L 1344 -1509 
L 813 -1509 
L 813 4891 
L 1344 4891 
z
" transform="scale(0.015625)"/>
       <path id="DejaVuSans-Oblique-48" d="M 1081 4666 
L 1716 4666 
L 1344 2753 
L 3634 2753 
L 4006 4666 
L 4641 4666 
L 3731 0 
L 3097 0 
L 3531 2222 
L 1241 2222 
L 806 0 
L 172 0 
L 1081 4666 
z
" transform="scale(0.015625)"/>
       <path id="DejaVuSans-28" d="M 1984 4856 
Q 1566 4138 1362 3434 
Q 1159 2731 1159 2009 
Q 1159 1288 1364 580 
Q 1569 -128 1984 -844 
L 1484 -844 
Q 1016 -109 783 600 
Q 550 1309 550 2009 
Q 550 2706 781 3412 
Q 1013 4119 1484 4856 
L 1984 4856 
z
" transform="scale(0.015625)"/>
       <path id="DejaVuSans-29" d="M 513 4856 
L 1013 4856 
Q 1481 4119 1714 3412 
Q 1947 2706 1947 2009 
Q 1947 1309 1714 600 
Q 1481 -109 1013 -844 
L 513 -844 
Q 928 -128 1133 580 
Q 1338 1288 1338 2009 
Q 1338 2731 1133 3434 
Q 928 4138 513 4856 
z
" transform="scale(0.015625)"/>
      </defs>
      <use xlink:href="#DejaVuSans-7c" transform="translate(0 0.578125)"/>
      <use xlink:href="#DejaVuSans-Oblique-48" transform="translate(33.691406 0.578125)"/>
      <use xlink:href="#DejaVuSans-28" transform="translate(108.886719 0.578125)"/>
      <use xlink:href="#DejaVuSans-Oblique-66" transform="translate(147.900391 0.578125)"/>
      <use xlink:href="#DejaVuSans-29" transform="translate(183.105469 0.578125)"/>
      <use xlink:href="#DejaVuSans-7c" transform="translate(222.119141 0.578125)"/>
     </g>
    </g>
   </g>
   <g id="line2d_27">
    <path d="M 72 236.014501 
L 78.109091 235.9079 
L 84.218182 235.579049 
L 89.890909 235.049656 
L 95.127273 234.331692 
L 99.490909 233.525041 
L 103.418182 232.5951 
L 106.909091 231.563666 
L 109.963636 230.461445 
L 113.018182 229.122633 
L 115.636364 227.73605 
L 117.818182 226.367677 
L 120 224.756576 
L 122.181818 222.839641 
L 123.927273 221.028363 
L 125.672727 218.905469 
L 127.418182 216.388998 
L 128.727273 214.176859 
L 130.036364 211.616494 
L 131.345455 208.623281 
L 132.654545 205.083459 
L 133.963636 200.840889 
L 135.272727 195.676291 
L 136.581818 189.273915 
L 137.454545 184.096153 
L 138.327273 177.973276 
L 139.2 170.649669 
L 140.072727 161.785085 
L 140.945455 150.93216 
L 141.818182 137.529441 
L 142.690909 120.967218 
L 144 89.712167 
L 145.309091 56.697353 
L 145.745455 48.908253 
L 146.181818 44.64 
L 146.618182 44.64 
L 147.054545 48.908253 
L 147.490909 56.697353 
L 148.363636 78.155834 
L 149.672727 111.362719 
L 150.545455 129.677845 
L 151.418182 144.588264 
L 152.290909 156.639761 
L 153.163636 166.435218 
L 154.036364 174.480569 
L 155.345455 184.096153 
L 156.654545 191.57048 
L 157.963636 197.517295 
L 159.272727 202.345101 
L 160.581818 206.332713 
L 161.890909 209.675415 
L 163.2 212.513363 
L 164.945455 215.686003 
L 166.690909 218.31704 
L 168.436364 220.529631 
L 170.181818 222.412421 
L 172.363636 224.400039 
L 174.545455 226.06662 
L 176.727273 227.479361 
L 179.345455 228.908416 
L 182.4 230.286006 
L 185.454545 231.418692 
L 188.945455 232.477699 
L 192.872727 233.432117 
L 197.236364 234.260321 
L 202.036364 234.946556 
L 207.272727 235.477311 
L 212.945455 235.837481 
L 219.054545 236.005854 
L 225.163636 235.960297 
L 231.272727 235.696959 
L 236.945455 235.237752 
L 242.181818 234.598503 
L 246.981818 233.789713 
L 251.345455 232.820927 
L 255.272727 231.704821 
L 258.763636 230.461445 
L 261.818182 229.122633 
L 264.436364 227.73605 
L 266.618182 226.367677 
L 268.8 224.756576 
L 270.981818 222.839641 
L 272.727273 221.028363 
L 274.472727 218.905469 
L 276.218182 216.388998 
L 277.527273 214.176859 
L 278.836364 211.616494 
L 280.145455 208.623281 
L 281.454545 205.083459 
L 282.763636 200.840889 
L 284.072727 195.676291 
L 285.381818 189.273915 
L 286.254545 184.096153 
L 287.127273 177.973276 
L 288 170.649669 
L 288.872727 161.785085 
L 289.745455 150.93216 
L 290.618182 137.529441 
L 291.490909 120.967218 
L 292.8 89.712167 
L 294.109091 56.697353 
L 294.545455 48.908253 
L 294.981818 44.64 
L 295.418182 44.64 
L 295.854545 48.908253 
L 296.290909 56.697353 
L 297.163636 78.155834 
L 298.472727 111.362719 
L 299.345455 129.677845 
L 300.218182 144.588264 
L 301.090909 156.639761 
L 301.963636 166.435218 
L 302.836364 174.480569 
L 304.145455 184.096153 
L 305.454545 191.57048 
L 306.763636 197.517295 
L 308.072727 202.345101 
L 309.381818 206.332713 
L 310.690909 209.675415 
L 312 212.513363 
L 313.745455 215.686003 
L 315.490909 218.31704 
L 317.236364 220.529631 
L 318.981818 222.412421 
L 321.163636 224.400039 
L 323.345455 226.06662 
L 325.527273 227.479361 
L 328.145455 228.908416 
L 331.2 230.286006 
L 334.254545 231.418692 
L 337.745455 232.477699 
L 341.672727 233.432117 
L 346.036364 234.260321 
L 350.836364 234.946556 
L 356.072727 235.477311 
L 361.745455 235.837481 
L 367.854545 236.005854 
L 373.963636 235.960297 
L 380.072727 235.696959 
L 385.745455 235.237752 
L 390.981818 234.598503 
L 395.781818 233.789713 
L 400.145455 232.820927 
L 404.072727 231.704821 
L 407.563636 230.461445 
L 410.618182 229.122633 
L 413.236364 227.73605 
L 415.418182 226.367677 
L 417.6 224.756576 
L 419.781818 222.839641 
L 421.527273 221.028363 
L 423.272727 218.905469 
L 425.018182 216.388998 
L 426.327273 214.176859 
L 427.636364 211.616494 
L 428.945455 208.623281 
L 430.254545 205.083459 
L 431.563636 200.840889 
L 432.872727 195.676291 
L 434.181818 189.273915 
L 435.054545 184.096153 
L 435.927273 177.973276 
L 436.8 170.649669 
L 437.672727 161.785085 
L 438.545455 150.93216 
L 439.418182 137.529441 
L 440.290909 120.967218 
L 441.6 89.712167 
L 442.909091 56.697353 
L 443.345455 48.908253 
L 443.781818 44.64 
L 444.218182 44.64 
L 444.654545 48.908253 
L 445.090909 56.697353 
L 445.963636 78.155834 
L 447.272727 111.362719 
L 448.145455 129.677845 
L 449.018182 144.588264 
L 449.890909 156.639761 
L 450.763636 166.435218 
L 451.636364 174.480569 
L 452.945455 184.096153 
L 454.254545 191.57048 
L 455.563636 197.517295 
L 456.872727 202.345101 
L 458.181818 206.332713 
L 459.490909 209.675415 
L 460.8 212.513363 
L 462.545455 215.686003 
L 464.290909 218.31704 
L 466.036364 220.529631 
L 467.781818 222.412421 
L 469.963636 224.400039 
L 472.145455 226.06662 
L 474.327273 227.479361 
L 476.945455 228.908416 
L 480 230.286006 
L 483.054545 231.418692 
L 486.545455 232.477699 
L 490.472727 233.432117 
L 494.836364 234.260321 
L 499.636364 234.946556 
L 504.872727 235.477311 
L 510.545455 235.837481 
L 516.654545 236.005854 
L 518.4 236.014501 
L 518.4 236.014501 
" clip-path="url(#pa80a65dcac)" style="fill: none; stroke: #1f77b4; stroke-width: 1.5; stroke-linecap: square"/>
   </g>
   <g id="line2d_28">
    <path d="M 72 246.24 
L 113.890909 245.650527 
L 144.872727 245.003328 
L 168.436364 244.299432 
L 186.763636 243.540662 
L 201.6 242.709068 
L 213.381818 241.83421 
L 222.981818 240.910777 
L 231.272727 239.89071 
L 238.254545 238.802154 
L 243.927273 237.700393 
L 248.727273 236.559202 
L 253.090909 235.297505 
L 257.018182 233.917416 
L 260.509091 232.430939 
L 263.563636 230.864369 
L 266.181818 229.262823 
L 268.363636 227.693468 
L 270.545455 225.851819 
L 272.290909 224.131705 
L 274.036364 222.135441 
L 275.781818 219.791577 
L 277.527273 217.002091 
L 278.836364 214.5366 
L 280.145455 211.664482 
L 281.454545 208.278731 
L 282.763636 204.232501 
L 284.072727 199.319574 
L 285.381818 193.243023 
L 286.254545 188.336915 
L 287.127273 182.542228 
L 288 175.61862 
L 288.872727 167.246191 
L 289.745455 157.004358 
L 290.618182 144.365349 
L 291.490909 128.756209 
L 292.8 99.316943 
L 294.109091 68.23422 
L 294.545455 60.902296 
L 294.981818 56.884735 
L 295.418182 56.884735 
L 295.854545 60.902296 
L 296.290909 68.23422 
L 297.163636 88.435681 
L 298.472727 119.707759 
L 299.345455 136.964524 
L 300.218182 151.020911 
L 301.090909 162.389593 
L 301.963636 171.637219 
L 302.836364 179.239409 
L 304.145455 188.336915 
L 305.454545 195.421254 
L 306.763636 201.069525 
L 308.072727 205.66586 
L 309.381818 209.472454 
L 310.690909 212.672963 
L 312 215.399209 
L 313.745455 218.460019 
L 315.490909 221.012337 
L 317.236364 223.172051 
L 318.981818 225.022601 
L 321.163636 226.993231 
L 323.345455 228.663796 
L 325.963636 230.360388 
L 328.581818 231.794244 
L 331.636364 233.209431 
L 335.127273 234.564032 
L 339.054545 235.83211 
L 343.418182 237.000322 
L 348.654545 238.151695 
L 354.327273 239.169841 
L 361.309091 240.183882 
L 369.163636 241.096462 
L 378.763636 241.979357 
L 390.109091 242.792888 
L 404.072727 243.561693 
L 421.090909 244.268306 
L 442.472727 244.924781 
L 469.527273 245.52475 
L 504.872727 246.075391 
L 518.4 246.24 
L 518.4 246.24 
" clip-path="url(#pa80a65dcac)" style="fill: none; stroke: #008000; stroke-width: 1.5; stroke-linecap: square"/>
   </g>
   <g id="patch_3">
    <path d="M 72 256.32 
L 72 34.56 
" style="fill: none; stroke: #000000; stroke-width: 0.8; stroke-linejoin: miter; stroke-linecap: square"/>
   </g>
   <g id="patch_4">
    <path d="M 518.4 256.32 
L 518.4 34.56 
" style="fill: none; stroke: #000000; stroke-width: 0.8; stroke-linejoin: miter; stroke-linecap: square"/>
   </g>
   <g id="patch_5">
    <path d="M 72 256.32 
L 518.4 256.32 
" style="fill: none; stroke: #000000; stroke-width: 0.8; stroke-linejoin: miter; stroke-linecap: square"/>
   </g>
   <g id="patch_6">
    <path d="M 72 34.56 
L 518.4 34.56 
" style="fill: none; stroke: #000000; stroke-width: 0.8; stroke-linejoin: miter; stroke-linecap: square"/>
   </g>
   <g id="text_16">
    <!-- АЧХ (линейный масштаб) -->
    <g transform="translate(214.705312 28.56) scale(0.12 -0.12)">
     <defs>
      <path id="DejaVuSans-410" d="M 2188 4044 
L 1331 1722 
L 3047 1722 
L 2188 4044 
z
M 1831 4666 
L 2547 4666 
L 4325 0 
L 3669 0 
L 3244 1197 
L 1141 1197 
L 716 0 
L 50 0 
L 1831 4666 
z
" transform="scale(0.015625)"/>
      <path id="DejaVuSans-427" d="M 3125 0 
L 3125 1913 
L 1822 1913 
Q 1241 1913 894 2277 
Q 547 2641 547 3384 
L 547 4666 
L 1175 4666 
L 1175 3434 
Q 1175 2938 1369 2691 
Q 1563 2444 1950 2444 
L 3125 2444 
L 3125 4666 
L 3759 4666 
L 3759 0 
L 3125 0 
z
" transform="scale(0.015625)"/>
      <path id="DejaVuSans-425" d="M 403 4666 
L 1081 4666 
L 2241 2931 
L 3406 4666 
L 4084 4666 
L 2584 2425 
L 4184 0 
L 3506 0 
L 2194 1984 
L 872 0 
L 191 0 
L 1856 2491 
L 403 4666 
z
" transform="scale(0.015625)"/>
      <path id="DejaVuSans-43b" d="M 238 0 
L 238 478 
Q 806 566 981 959 
Q 1194 1513 1194 2928 
L 1194 3500 
L 3559 3500 
L 3559 0 
L 2984 0 
L 2984 3041 
L 1769 3041 
L 1769 2694 
Q 1769 1344 1494 738 
Q 1200 91 238 0 
z
" transform="scale(0.015625)"/>
      <path id="DejaVuSans-438" d="M 3578 3500 
L 3578 0 
L 3006 0 
L 3006 2809 
L 1319 0 
L 581 0 
L 581 3500 
L 1153 3500 
L 1153 697 
L 2838 3500 
L 3578 3500 
z
" transform="scale(0.015625)"/>
      <path id="DejaVuSans-43d" d="M 581 3500 
L 1159 3500 
L 1159 2072 
L 3025 2072 
L 3025 3500 
L 3603 3500 
L 3603 0 
L 3025 0 
L 3025 1613 
L 1159 1613 
L 1159 0 
L 581 0 
L 581 3500 
z
" transform="scale(0.015625)"/>
      <path id="DejaVuSans-435" d="M 3597 1894 
L 3597 1613 
L 953 1613 
Q 991 1019 1311 708 
Q 1631 397 2203 397 
Q 2534 397 2845 478 
Q 3156 559 3463 722 
L 3463 178 
Q 3153 47 2828 -22 
Q 2503 -91 2169 -91 
Q 1331 -91 842 396 
Q 353 884 353 1716 
Q 353 2575 817 3079 
Q 1281 3584 2069 3584 
Q 2775 3584 3186 3129 
Q 3597 2675 3597 1894 
z
M 3022 2063 
Q 3016 2534 2758 2815 
Q 2500 3097 2075 3097 
Q 1594 3097 1305 2825 
Q 1016 2553 972 2059 
L 3022 2063 
z
" transform="scale(0.015625)"/>
      <path id="DejaVuSans-439" d="M 3578 3500 
L 3578 0 
L 3006 0 
L 3006 2809 
L 1319 0 
L 581 0 
L 581 3500 
L 1153 3500 
L 1153 697 
L 2838 3500 
L 3578 3500 
z
M 1102 4833 
L 1471 4833 
Q 1505 4599 1656 4481 
Q 1808 4364 2080 4364 
Q 2349 4364 2499 4480 
Q 2649 4596 2689 4833 
L 3058 4833 
Q 3027 4386 2780 4161 
Q 2533 3936 2080 3936 
Q 1627 3936 1380 4161 
Q 1133 4386 1102 4833 
z
" transform="scale(0.015625)"/>
      <path id="DejaVuSans-44b" d="M 3907 3500 
L 4482 3500 
L 4482 0 
L 3907 0 
L 3907 3500 
z
M 4195 3584 
L 4195 3584 
z
M 2781 1038 
Q 2781 1319 2576 1466 
Q 2372 1613 1978 1613 
L 1159 1613 
L 1159 459 
L 1978 459 
Q 2372 459 2576 607 
Q 2781 756 2781 1038 
z
M 581 3500 
L 1159 3500 
L 1159 2072 
L 2003 2072 
Q 2672 2072 3033 1817 
Q 3394 1563 3394 1038 
Q 3394 513 3033 256 
Q 2672 0 2003 0 
L 581 0 
L 581 3500 
z
" transform="scale(0.015625)"/>
      <path id="DejaVuSans-43c" d="M 581 3500 
L 1422 3500 
L 2416 1156 
L 3413 3500 
L 4247 3500 
L 4247 0 
L 3669 0 
L 3669 2950 
L 2703 672 
L 2128 672 
L 1159 2950 
L 1159 0 
L 581 0 
L 581 3500 
z
" transform="scale(0.015625)"/>
      <path id="DejaVuSans-430" d="M 2194 1759 
Q 1497 1759 1228 1600 
Q 959 1441 959 1056 
Q 959 750 1161 570 
Q 1363 391 1709 391 
Q 2188 391 2477 730 
Q 2766 1069 2766 1631 
L 2766 1759 
L 2194 1759 
z
M 3341 1997 
L 3341 0 
L 2766 0 
L 2766 531 
Q 2569 213 2275 61 
Q 1981 -91 1556 -91 
Q 1019 -91 701 211 
Q 384 513 384 1019 
Q 384 1609 779 1909 
Q 1175 2209 1959 2209 
L 2766 2209 
L 2766 2266 
Q 2766 2663 2505 2880 
Q 2244 3097 1772 3097 
Q 1472 3097 1187 3025 
Q 903 2953 641 2809 
L 641 3341 
Q 956 3463 1253 3523 
Q 1550 3584 1831 3584 
Q 2591 3584 2966 3190 
Q 3341 2797 3341 1997 
z
" transform="scale(0.015625)"/>
      <path id="DejaVuSans-441" d="M 3122 3366 
L 3122 2828 
Q 2878 2963 2633 3030 
Q 2388 3097 2138 3097 
Q 1578 3097 1268 2742 
Q 959 2388 959 1747 
Q 959 1106 1268 751 
Q 1578 397 2138 397 
Q 2388 397 2633 464 
Q 2878 531 3122 666 
L 3122 134 
Q 2881 22 2623 -34 
Q 2366 -91 2075 -91 
Q 1284 -91 818 406 
Q 353 903 353 1747 
Q 353 2603 823 3093 
Q 1294 3584 2113 3584 
Q 2378 3584 2631 3529 
Q 2884 3475 3122 3366 
z
" transform="scale(0.015625)"/>
      <path id="DejaVuSans-448" d="M 3216 459 
L 4697 459 
L 4697 3500 
L 5275 3500 
L 5275 0 
L 581 0 
L 581 3500 
L 1159 3500 
L 1159 459 
L 2638 459 
L 2638 3500 
L 3216 3500 
L 3216 459 
z
" transform="scale(0.015625)"/>
      <path id="DejaVuSans-442" d="M 188 3500 
L 3541 3500 
L 3541 3041 
L 2147 3041 
L 2147 0 
L 1581 0 
L 1581 3041 
L 188 3041 
L 188 3500 
z
" transform="scale(0.015625)"/>
      <path id="DejaVuSans-431" d="M 1991 3584 
Q 2741 3584 3169 3096 
Q 3597 2609 3597 1747 
Q 3597 888 3169 398 
Q 2741 -91 1991 -91 
Q 1238 -91 822 384 
Q 406 859 384 1747 
L 366 2463 
Q 350 2834 350 2963 
Q 350 3463 531 3831 
Q 816 4409 1308 4659 
Q 1800 4909 2625 4916 
Q 3006 4919 3175 4972 
L 3334 4516 
Q 3181 4453 3041 4450 
L 2259 4397 
Q 1866 4369 1628 4231 
Q 1006 3866 947 3388 
L 925 3213 
Q 1331 3584 1991 3584 
z
M 1991 3097 
Q 1528 3097 1259 2736 
Q 991 2375 991 1747 
Q 991 1119 1258 758 
Q 1525 397 1991 397 
Q 2450 397 2719 759 
Q 2988 1122 2988 1747 
Q 2988 2369 2719 2733 
Q 2450 3097 1991 3097 
z
" transform="scale(0.015625)"/>
     </defs>
     <use xlink:href="#DejaVuSans-410"/>
     <use xlink:href="#DejaVuSans-427" x="68.408203"/>
     <use xlink:href="#DejaVuSans-425" x="136.962891"/>
     <use xlink:href="#DejaVuSans-20" x="205.46875"/>
     <use xlink:href="#DejaVuSans-28" x="237.255859"/>
     <use xlink:href="#DejaVuSans-43b" x="276.269531"/>
     <use xlink:href="#DejaVuSans-438" x="340.185547"/>
     <use xlink:href="#DejaVuSans-43d" x="405.175781"/>
     <use xlink:href="#DejaVuSans-435" x="470.556641"/>
     <use xlink:href="#DejaVuSans-439" x="532.080078"/>
     <use xlink:href="#DejaVuSans-43d" x="597.070312"/>
     <use xlink:href="#DejaVuSans-44b" x="662.451172"/>
     <use xlink:href="#DejaVuSans-439" x="741.40625"/>
     <use xlink:href="#DejaVuSans-20" x="806.396484"/>
     <use xlink:href="#DejaVuSans-43c" x="838.183594"/>
     <use xlink:href="#DejaVuSans-430" x="913.623047"/>
     <use xlink:href="#DejaVuSans-441" x="974.902344"/>
     <use xlink:href="#DejaVuSans-448" x="1029.882812"/>
     <use xlink:href="#DejaVuSans-442" x="1121.386719"/>
     <use xlink:href="#DejaVuSans-430" x="1179.638672"/>
     <use xlink:href="#DejaVuSans-431" x="1240.917969"/>
     <use xlink:href="#DejaVuSans-29" x="1302.587891"/>
    </g>
   </g>
   <g id="legend_1">
    <g id="patch_7">
     <path d="M 449.2 72.76 
L 511.4 72.76 
Q 513.4 72.76 513.4 70.76 
L 513.4 41.56 
Q 513.4 39.56 511.4 39.56 
L 449.2 39.56 
Q 447.2 39.56 447.2 41.56 
L 447.2 70.76 
Q 447.2 72.76 449.2 72.76 
z
" style="fill: #ffffff; opacity: 0.8; stroke: #cccccc; stroke-linejoin: miter"/>
    </g>
    <g id="line2d_29">
     <path d="M 451.2 47.76 
L 461.2 47.76 
L 471.2 47.76 
" style="fill: none; stroke: #1f77b4; stroke-width: 1.5; stroke-linecap: square"/>
    </g>
    <g id="text_17">
     <!-- $|H(f)|$ -->
     <g transform="translate(479.2 51.26) scale(0.1 -0.1)">
      <use xlink:href="#DejaVuSans-7c" transform="translate(0 0.578125)"/>
      <use xlink:href="#DejaVuSans-Oblique-48" transform="translate(33.691406 0.578125)"/>
      <use xlink:href="#DejaVuSans-28" transform="translate(108.886719 0.578125)"/>
      <use xlink:href="#DejaVuSans-Oblique-66" transform="translate(147.900391 0.578125)"/>
      <use xlink:href="#DejaVuSans-29" transform="translate(183.105469 0.578125)"/>
      <use xlink:href="#DejaVuSans-7c" transform="translate(222.119141 0.578125)"/>
     </g>
    </g>
    <g id="line2d_30">
     <path d="M 451.2 62.86 
L 461.2 62.86 
L 471.2 62.86 
" style="fill: none; stroke: #008000; stroke-width: 1.5; stroke-linecap: square"/>
    </g>
    <g id="text_18">
     <!-- $|H_a(f)|$ -->
     <g transform="translate(479.2 66.36) scale(0.1 -0.1)">
      <defs>
       <path id="DejaVuSans-Oblique-61" d="M 3438 1997 
L 3047 0 
L 2472 0 
L 2578 531 
Q 2325 219 2001 64 
Q 1678 -91 1281 -91 
Q 834 -91 548 182 
Q 263 456 263 884 
Q 263 1497 752 1853 
Q 1241 2209 2100 2209 
L 2900 2209 
L 2931 2363 
Q 2938 2388 2941 2417 
Q 2944 2447 2944 2509 
Q 2944 2788 2717 2942 
Q 2491 3097 2081 3097 
Q 1800 3097 1504 3025 
Q 1209 2953 897 2809 
L 997 3341 
Q 1322 3463 1633 3523 
Q 1944 3584 2234 3584 
Q 2853 3584 3176 3315 
Q 3500 3047 3500 2534 
Q 3500 2431 3484 2292 
Q 3469 2153 3438 1997 
z
M 2816 1759 
L 2241 1759 
Q 1534 1759 1195 1570 
Q 856 1381 856 984 
Q 856 709 1029 553 
Q 1203 397 1509 397 
Q 1978 397 2328 733 
Q 2678 1069 2791 1631 
L 2816 1759 
z
" transform="scale(0.015625)"/>
      </defs>
      <use xlink:href="#DejaVuSans-7c" transform="translate(0 0.578125)"/>
      <use xlink:href="#DejaVuSans-Oblique-48" transform="translate(33.691406 0.578125)"/>
      <use xlink:href="#DejaVuSans-Oblique-61" transform="translate(108.886719 -15.828125) scale(0.7)"/>
      <use xlink:href="#DejaVuSans-28" transform="translate(154.516602 0.578125)"/>
      <use xlink:href="#DejaVuSans-Oblique-66" transform="translate(193.530273 0.578125)"/>
      <use xlink:href="#DejaVuSans-29" transform="translate(228.735352 0.578125)"/>
      <use xlink:href="#DejaVuSans-7c" transform="translate(267.749023 0.578125)"/>
     </g>
    </g>
   </g>
  </g>
 </g>
 <defs>
  <clipPath id="pa80a65dcac">
   <rect x="72" y="34.56" width="446.4" height="221.76"/>
  </clipPath>
 </defs>
</svg>
